<?xml version="1.0" standalone="no"?>
<!DOCTYPE svg PUBLIC "-//W3C//DTD SVG 20010904//EN"
 "http://www.w3.org/TR/2001/REC-SVG-20010904/DTD/svg10.dtd">
<svg version="1.0" xmlns="http://www.w3.org/2000/svg"
 width="260.000000pt" height="260.000000pt" viewBox="0 0 260.000000 260.000000"
 preserveAspectRatio="xMidYMid meet">
<metadata>
Created by potrace 1.11, written by Peter Selinger 2001-2013
</metadata>
<g transform="translate(0.000000,260.000000) scale(0.100000,-0.100000)"
fill="#000000" stroke="none">
<path d="M1259 2595 c-3 -2 -23 -7 -44 -11 -93 -14 -257 -88 -357 -161 -85
-61 -178 -185 -221 -293 -38 -97 -57 -190 -60 -293 -1 -46 -2 -48 -27 -41 -38
10 -90 5 -121 -13 -37 -22 -54 -77 -45 -154 16 -162 77 -290 161 -336 9 -5 15
-35 19 -83 7 -90 11 -112 27 -142 42 -79 120 -142 277 -224 l94 -49 -49 -13
c-26 -7 -55 -14 -63 -16 -8 -3 -49 -16 -90 -31 -237 -86 -452 -242 -590 -427
-54 -73 -138 -228 -155 -285 l-6 -23 1285 0 1286 0 -5 33 c-10 57 -45 158 -80
226 -111 220 -287 363 -595 484 -36 14 -77 29 -93 33 -30 7 -44 21 -22 21 36
0 151 64 205 114 44 41 108 133 114 164 4 17 9 41 11 55 3 14 8 61 12 105 3
47 11 83 18 87 86 51 135 166 136 318 0 147 -35 205 -122 202 -39 -2 -40 -1
-38 31 1 51 -10 111 -36 192 -68 207 -186 346 -385 451 -106 56 -219 84 -346
84 -50 0 -93 -2 -95 -5z"/>
</g>
</svg>
